<?xml version="1.0" encoding="UTF-8"?>
<!DOCTYPE svg PUBLIC "-//W3C//DTD SVG 1.1//EN" "http://www.w3.org/Graphics/SVG/1.1/DTD/svg11.dtd">
<!-- Creator: CorelDRAW 2020 (64 Bit) -->
<svg xmlns="http://www.w3.org/2000/svg" xml:space="preserve" width="240mm" height="70mm" version="1.1" style="shape-rendering:geometricPrecision; text-rendering:geometricPrecision; image-rendering:optimizeQuality; fill-rule:evenodd; clip-rule:evenodd"
viewBox="0 0 24000 7000"
 xmlns:xlink="http://www.w3.org/1999/xlink"
 xmlns:xodm="http://www.corel.com/coreldraw/odm/2003">
 <defs>
  <style type="text/css">
   <![CDATA[
    .fil0 {fill:url(#id0)}
   ]]>
  </style>
  <linearGradient id="id0" gradientUnits="userSpaceOnUse" x1="12059.94" y1="2783.51" x2="25580.14" y2="2675.88">
   <stop offset="0" style="stop-opacity:1; stop-color:#5434AF"/>
   <stop offset="0.611765" style="stop-opacity:1; stop-color:#391E87"/>
   <stop offset="1" style="stop-opacity:1; stop-color:#1D075F"/>
  </linearGradient>
 </defs>
 <g id="Camada_x0020_1">
  <metadata id="CorelCorpID_0Corel-Layer"/>
  <path class="fil0" d="M1493.03 1985.58l1491.43 7.76c452.18,2.32 815.92,427.71 815.92,865.83l0 348.71 -865.99 0c-8.19,-210.04 -182.55,-379.32 -394.43,-379.32l-636.95 0c-217.06,0 -394.76,177.7 -394.76,394.77l0 600.11c0,217.07 177.63,394.77 394.76,394.77l636.95 0c217.12,0 394.76,-177.64 394.76,-394.77l0 -52.18 865.66 0 0 416.33c0,480.57 -393.33,873.91 -873.92,873.91l-1409.97 0c-480.58,0 -873.91,-393.27 -873.91,-873.91l0 -1328.42c0,-472.8 380.52,-861.05 850.45,-873.59zm12558.64 220.4l0 2632.05 -527.92 0 0 -1711.97 -705.15 1711.97 -399.71 0 -708.93 -1711.97 0 1711.97 -527.91 0 0 -2632.05 599.56 0 837.14 1957.06 837.12 -1957.06 595.8 0zm-2932.64 3195.84l11005.69 0 268.08 -616.58 -837.14 -2036.27 592.03 0 539.24 1459.32 546.77 -1459.32 561.86 0 -1293.4 3077.02 -561.87 0 0.36 -0.83 -10821.62 0 0 -423.34zm10293.34 -1653.56c0,75.41 -5.02,143.29 -15.08,203.61l-1527.2 0c12.57,150.84 65.37,268.99 158.38,354.47 93.02,85.47 207.4,128.21 343.15,128.21 196.09,0 335.61,-84.22 418.57,-252.65l569.39 0c-60.32,201.11 -175.96,366.4 -346.91,495.87 -170.95,129.46 -380.86,194.2 -629.74,194.2 -201.11,0 -381.48,-44.62 -541.12,-133.87 -159.63,-89.24 -284.06,-215.57 -373.3,-378.97 -89.25,-163.41 -133.87,-351.95 -133.87,-565.62 0,-216.2 43.99,-406 131.98,-569.41 87.99,-163.4 211.16,-289.1 369.54,-377.08 158.37,-87.99 340.63,-131.99 546.77,-131.99 198.6,0 376.46,42.74 533.58,128.21 157.12,85.48 279.05,206.77 365.77,363.89 86.73,157.12 130.09,337.5 130.09,541.13zm-546.76 -150.84c-2.52,-135.75 -51.54,-244.48 -147.07,-326.18 -95.53,-81.7 -212.42,-122.55 -350.69,-122.55 -130.72,0 -240.71,39.59 -329.95,118.78 -89.25,79.19 -143.92,189.17 -164.04,329.95l991.75 0zm-2730.11 -878.61c248.88,0 449.99,78.56 603.34,235.68 153.35,157.12 230.03,376.45 230.03,658.01l0 1225.53 -527.93 0 0 -1153.88c0,-165.92 -41.48,-293.5 -124.44,-382.74 -82.96,-89.25 -196.08,-133.87 -339.38,-133.87 -145.79,0 -260.81,44.62 -345.02,133.87 -84.22,89.24 -126.33,216.82 -126.33,382.74l0 1153.88 -527.92 0 0 -2089.06 527.92 0 0 260.19c70.39,-90.5 160.27,-161.52 269.62,-213.05 109.36,-51.54 229.4,-77.3 360.11,-77.3zm-2635.82 2153.16c-201.12,0 -382.12,-44.62 -543.01,-133.87 -160.89,-89.24 -287.2,-215.57 -378.96,-378.97 -91.76,-163.41 -137.64,-351.95 -137.64,-565.62 0,-213.69 47.14,-402.23 141.41,-565.64 94.27,-163.4 223.1,-289.73 386.5,-378.97 163.41,-89.24 345.67,-133.87 546.78,-133.87 201.11,0 383.37,44.63 546.78,133.87 163.4,89.24 292.23,215.57 386.5,378.97 94.28,163.41 141.41,351.95 141.41,565.64 0,213.67 -48.39,402.21 -145.18,565.62 -96.77,163.4 -227.5,289.73 -392.16,378.97 -164.66,89.25 -348.81,133.87 -552.43,133.87zm0 -460.05c95.53,0 185.4,-23.25 269.62,-69.76 84.21,-46.51 151.46,-116.27 201.74,-209.28 50.28,-93.02 75.41,-206.15 75.41,-339.37 0,-198.6 -52.16,-351.32 -156.49,-458.17 -104.32,-106.84 -231.91,-160.26 -382.74,-160.26 -150.84,0 -277.16,53.42 -378.97,160.26 -101.82,106.85 -152.73,259.57 -152.73,458.17 0,198.6 49.65,351.31 148.95,458.15 99.3,106.84 224.37,160.26 375.21,160.26zm-9915.93 657.33c57.01,-16.51 110.72,-38.44 160.91,-65.58 127.92,-69.18 226.62,-162.62 295.88,-280.07l0 345.77 361.95 0.09 496.48 0 3.67 -731.61 0 -1111.55c0,-402.2 -329.21,-731.26 -731.26,-731.26l-303.9 0 -526.15 -5.11c-49.7,-0.48 -98.53,1.01 -146.09,5.11l-203.65 0c-402.05,0 -731.26,329.21 -731.26,731.26l0 1111.55c0,402.05 329.07,731.17 731.26,731.26l592.16 0.14zm2981.39 -1667.69l370.27 0c126.21,0 229.47,103.27 229.47,229.48l0 348.86c0,126.21 -103.26,229.48 -229.47,229.48l-370.27 0c-126.22,0 -229.48,-103.27 -229.48,-229.48l0 -348.86c0,-126.21 103.26,-229.48 229.48,-229.48zm-3217.53 -23.39l370.27 0c126.22,0 229.48,103.41 229.48,229.47l0 348.87c0,126.06 -103.4,229.47 -229.48,229.47l-370.27 0c-126.07,0 -229.47,-103.27 -229.47,-229.47l0 -348.87c0,-126.21 103.25,-229.47 229.47,-229.47zm2883.19 1802l0 633.29 1334.86 0c493.71,0 899.51,-382.33 897.7,-851.29l-11.36 -2929.26c-1.81,-468.93 -403.96,-854 -897.69,-851.28l-8450.41 46.61c-493.74,2.72 -897.25,382.29 -897.7,851.28l-2.81 2882.65c-0.44,468.93 337.69,852.04 831.37,851.29l6359.38 -9.75 0 -1455.61c-0.04,-3.42 -0.13,-6.82 -0.13,-10.25l0 -1111.55c0,-149.35 45.39,-288.58 123.03,-404.65 67.94,-110.79 164.84,-198.71 293.7,-255.06 95.41,-45.83 202.1,-71.55 314.53,-71.55l325.27 0 525.99 -5.11c49.85,-0.47 98.25,1.01 145.35,5.11l183.18 0c402.2,0 731.26,329.06 731.26,731.26 0,370.81 0,740.6 0,1111.55 0,402.2 -329.06,731.26 -731.26,731.26l-550.59 0c-51.4,0 -65.54,3.09 -114.45,-14.7 -37.02,-13.5 -72.53,-29.45 -106.46,-47.81 -127.97,-69.24 -236.85,-162.62 -306.11,-280.08l3.35 352.36 0 101.29z"/>
 </g>
</svg>
