<?xml version="1.0" encoding="UTF-8"?>
<!DOCTYPE svg PUBLIC "-//W3C//DTD SVG 1.1//EN" "http://www.w3.org/Graphics/SVG/1.1/DTD/svg11.dtd">
<!-- Creator: CorelDRAW 2020 (64 Bit) -->
<svg xmlns="http://www.w3.org/2000/svg" xml:space="preserve" width="297mm" height="150mm" version="1.1" style="shape-rendering:geometricPrecision; text-rendering:geometricPrecision; image-rendering:optimizeQuality; fill-rule:evenodd; clip-rule:evenodd"
viewBox="0 0 29700 15000"
 xmlns:xlink="http://www.w3.org/1999/xlink"
 xmlns:xodm="http://www.corel.com/coreldraw/odm/2003">
 <defs>
  <style type="text/css">
   <![CDATA[
    .fil0 {fill:white}
   ]]>
  </style>
 </defs>
 <g id="Camada_x0020_1">
  <metadata id="CorelCorpID_0Corel-Layer"/>
  <path class="fil0" d="M4328.41 3346.61l4097.45 21.32c1242.28,6.38 2241.61,1175.07 2241.61,2378.74l0 958.02 -2379.17 0c-22.51,-577.05 -501.52,-1042.12 -1083.64,-1042.12l-1749.9 0c-596.34,0 -1084.56,488.21 -1084.56,1084.55l0 1648.73c0,596.34 488.04,1084.56 1084.56,1084.56l1749.9 0c596.52,0 1084.55,-488.03 1084.55,-1084.56l0 -143.36 2378.26 0 0 1143.78c0,1320.31 -1080.61,2400.95 -2400.95,2400.95l-3873.66 0c-1320.34,0 -2400.94,-1080.46 -2400.94,-2400.95l0 -3649.6c0,-1298.95 1045.43,-2365.59 2336.49,-2400.06zm11238.56 8471.9c156.63,-45.38 304.19,-105.61 442.08,-180.17 351.44,-190.08 622.61,-446.79 812.9,-769.47l0 949.97 994.37 0.24 1364.02 0 10.08 -2009.98 0 -3053.81c0,-1104.96 -904.44,-2009.01 -2009.01,-2009.01l-834.92 0 -1445.5 -14.03c-136.56,-1.34 -270.72,2.76 -401.38,14.03l-559.5 0c-1104.57,0 -2009.01,904.44 -2009.01,2009.01l0 3053.81c0,1104.57 904.08,2008.77 2009.01,2009.01l1626.86 0.4zm8190.89 -4581.72l1017.25 0c346.76,0 630.45,283.72 630.45,630.45l0 958.45c0,346.74 -283.69,630.45 -630.45,630.45l-1017.25 0c-346.77,0 -630.45,-283.71 -630.45,-630.45l0 -958.45c0,-346.73 283.68,-630.45 630.45,-630.45zm-8839.62 -64.26l1017.24 0c346.77,0 630.45,284.1 630.45,630.44l0 958.45c0,346.34 -284.07,630.45 -630.45,630.45l-1017.24 0c-346.37,0 -630.45,-283.71 -630.45,-630.45l0 -958.45c0,-346.73 283.68,-630.44 630.45,-630.44zm7921.08 4950.71l0 1739.85 3667.31 0c1356.39,0 2471.26,-1050.39 2466.28,-2338.77l-31.2 -8047.65c-4.98,-1288.33 -1109.82,-2346.24 -2466.27,-2338.77l-23216.12 128.05c-1356.45,7.47 -2465.03,1050.29 -2466.28,2338.77l-7.71 7919.6c-1.22,1288.29 927.74,2340.83 2284.04,2338.77l17471.37 -26.79 0 -3999.04c-0.12,-9.39 -0.37,-18.74 -0.37,-28.16l0 -3053.81c0,-410.3 124.71,-792.82 338.02,-1111.7 186.64,-304.37 452.86,-545.92 806.89,-700.74 262.11,-125.92 555.24,-196.57 864.1,-196.57l893.63 0 1445.08 -14.03c136.95,-1.31 269.93,2.76 399.32,14.03l503.27 0c1104.97,0 2009.02,904.05 2009.02,2009.01 0,1018.74 0,2034.68 0,3053.81 0,1104.97 -904.05,2009.01 -2009.02,2009.01l-1512.66 0c-141.23,0 -180.08,8.51 -314.45,-40.39 -101.68,-37.09 -199.24,-80.89 -292.46,-131.34 -351.59,-190.22 -650.7,-446.78 -840.99,-769.46l9.2 968.04 0 278.28z"/>
 </g>
</svg>
