<?xml version="1.0" encoding="UTF-8"?>
<!DOCTYPE svg PUBLIC "-//W3C//DTD SVG 1.1//EN" "http://www.w3.org/Graphics/SVG/1.1/DTD/svg11.dtd">
<!-- Creator: CorelDRAW 2020 (64 Bit) -->
<svg xmlns="http://www.w3.org/2000/svg" xml:space="preserve" width="60mm" height="60mm" version="1.1" style="shape-rendering:geometricPrecision; text-rendering:geometricPrecision; image-rendering:optimizeQuality; fill-rule:evenodd; clip-rule:evenodd"
viewBox="0 0 6000 6000"
 xmlns:xlink="http://www.w3.org/1999/xlink"
 xmlns:xodm="http://www.corel.com/coreldraw/odm/2003">
 <defs>
  <style type="text/css">
   <![CDATA[
    .fil0 {fill:white}
   ]]>
  </style>
 </defs>
 <g id="Camada_x0020_1">
  <metadata id="CorelCorpID_0Corel-Layer"/>
  <path class="fil0" d="M2031.52 998.01l1927.99 10.04c584.54,3 1054.75,552.9 1054.75,1119.26l0 450.78 -1119.48 0c-10.58,-271.52 -235.98,-490.35 -509.88,-490.35l-823.39 0c-280.6,0 -510.31,229.72 -510.31,510.33l0 775.76c0,280.61 229.62,510.33 510.31,510.33l823.39 0c280.67,0 510.31,-229.64 510.31,-510.33l0 -67.45 1119.05 0 0 538.19c0,621.24 -508.46,1129.72 -1129.73,1129.72l-1822.68 0c-621.25,0 -1129.71,-508.39 -1129.71,-1129.72l0 -1717.26c0,-611.19 491.9,-1113.08 1099.38,-1129.3zm-692.68 -906.43l3310.85 0c526.73,0 957.68,430.95 957.68,957.68l0 3912.82c0,526.73 -430.95,957.68 -957.68,957.68l-3310.85 0c-133.06,0 -259.98,-27.53 -375.42,-77.14 -294.55,-140.23 -500.24,-410.75 -571.46,-737.29 -7.1,-46.76 -10.8,-94.59 -10.8,-143.25l0 -3912.82c0,-58.95 5.43,-116.7 15.76,-172.79 66.46,-276.34 243.29,-513.12 483.78,-667.41 136.28,-74.83 292.48,-117.48 458.14,-117.48z"/>
 </g>
</svg>
